<svg width="375" height="393" viewBox="0 0 375 393" fill="none" xmlns="http://www.w3.org/2000/svg">
<rect x="40.5" y="40.5" width="295" height="295" stroke="black" stroke-width="5"/>
<path d="M133.438 121.938V130.125H145.375V121.938H153.312V150.75H125.562V121.938H133.438ZM133.438 144.5H145.375V136.188H133.438V144.5ZM170.312 117.938V159.688H162.312V117.938H170.312ZM171.625 167.375V173.75H132.062V155.5H140.062V167.375H171.625ZM231.147 122C231.147 137.688 223.96 148.688 205.335 154.875L202.085 148.688C209.866 146.188 215.085 142.938 218.397 138.938L203.272 140.125L202.21 133.938L221.647 133.25C222.21 131.719 222.585 130.094 222.772 128.375H205.085V122H231.147ZM246.835 117.875V134.312H254.522V140.812H246.835V159.75H238.772V117.875H246.835ZM248.772 167.375V173.75H209.835V155.938H217.897V167.375H248.772ZM155.875 204.562V208.062C155.812 212.719 155.812 219.031 154.125 228.125C156.156 228 158.156 227.844 160.125 227.625L160.688 233.5C155.438 234.25 150.094 234.719 144.812 235V254.625H136.812V235.375C132.094 235.531 127.562 235.562 123.312 235.562L122.312 229.125C129.531 229.094 137.812 229.031 146.125 228.625C146.625 226.156 147 223.844 147.312 221.688L126.75 223.5L125.688 216.938L147.875 216C147.969 214.125 148.031 212.469 148.062 210.938H127.062V204.562H155.875ZM171.438 200.875V257.75H163.375V200.875H171.438ZM253.772 244.375V250.875H201.71V244.375H253.772ZM231.835 212.125C231.835 220.062 238.96 227.562 251.835 229.5L248.71 235.812C238.741 234.062 231.366 229.188 227.71 222.438C224.085 229.312 216.772 234.375 206.96 236.125L203.835 229.75C216.272 227.812 223.46 220.062 223.46 212.125V212.062H206.022V205.688H249.21V212.062H231.835V212.125Z" fill="black"/>
<rect width="75" height="75" fill="white"/>
<rect width="75" height="75" transform="translate(300 300)" fill="white"/>
<path d="M58.744 33.512C57.592 34.6 56.632 35.784 55.864 37.064C55.096 38.344 54.488 39.688 54.04 41.096C54.104 41.096 54.136 41.096 54.136 41.096C56.248 41.096 58.04 41.928 59.512 43.592C61.048 45.192 61.816 47.176 61.816 49.544C61.816 52.104 60.952 54.28 59.224 56.072C57.496 57.864 55.352 58.76 52.792 58.76C50.104 58.76 47.864 57.896 46.072 56.168C44.344 54.44 43.48 52.2 43.48 49.448C43.48 46.76 44.248 43.784 45.784 40.52C47.32 37.192 49.176 34.632 51.352 32.84H58.744V33.512ZM36.76 33.512C35.608 34.6 34.648 35.784 33.88 37.064C33.112 38.344 32.504 39.688 32.056 41.096C32.12 41.096 32.152 41.096 32.152 41.096C34.264 41.096 36.056 41.928 37.528 43.592C39.064 45.192 39.832 47.176 39.832 49.544C39.832 52.104 38.968 54.28 37.24 56.072C35.512 57.864 33.368 58.76 30.808 58.76C28.12 58.76 25.88 57.896 24.088 56.168C22.36 54.44 21.496 52.2 21.496 49.448C21.496 46.76 22.264 43.784 23.8 40.52C25.336 37.192 27.192 34.632 29.368 32.84H36.76V33.512Z" fill="#F5C02F"/>
<path d="M319.048 347.992C320.2 346.904 321.16 345.72 321.928 344.44C322.696 343.16 323.304 341.816 323.752 340.408C323.688 340.408 323.656 340.408 323.656 340.408C321.544 340.408 319.72 339.608 318.184 338.008C316.712 336.344 315.976 334.328 315.976 331.96C315.976 329.4 316.84 327.224 318.568 325.432C320.296 323.64 322.44 322.744 325 322.744C327.688 322.744 329.896 323.608 331.624 325.336C333.416 327.064 334.312 329.304 334.312 332.056C334.312 334.744 333.544 337.752 332.008 341.08C330.472 344.344 328.616 346.872 326.44 348.664H319.048V347.992ZM341.032 347.992C342.184 346.904 343.144 345.72 343.912 344.44C344.68 343.16 345.288 341.816 345.736 340.408C345.672 340.408 345.64 340.408 345.64 340.408C343.528 340.408 341.704 339.608 340.168 338.008C338.696 336.344 337.96 334.328 337.96 331.96C337.96 329.4 338.824 327.224 340.552 325.432C342.28 323.64 344.424 322.744 346.984 322.744C349.672 322.744 351.88 323.608 353.608 325.336C355.4 327.064 356.296 329.304 356.296 332.056C356.296 334.744 355.528 337.752 353.992 341.08C352.456 344.344 350.6 346.872 348.424 348.664H341.032V347.992Z" fill="#F5C02F"/>
</svg>
