<svg width="320" height="320" viewBox="0 0 320 320" fill="none" xmlns="http://www.w3.org/2000/svg">
<path d="M256.482 112.54C253.279 111.445 250.048 110.429 246.794 109.496C247.34 107.268 247.844 105.068 248.29 102.907C255.625 67.4096 250.83 38.8125 234.453 29.397C218.75 20.3706 193.07 29.7827 167.134 52.2864C164.578 54.5081 162.079 56.7939 159.639 59.1417C158.005 57.5806 156.343 56.0498 154.652 54.55C127.471 30.4883 100.225 20.3472 83.8655 29.7897C68.1771 38.8442 63.5316 65.7274 70.1347 99.3687C70.7917 102.7 71.5335 106.015 72.3593 109.309C68.5028 110.402 64.7814 111.565 61.22 112.803C29.3516 123.88 9 141.24 9 159.247C9 177.845 30.8484 196.499 64.0407 207.81C66.7317 208.723 69.4451 209.569 72.1783 210.348C71.2909 213.896 70.5028 217.468 69.8149 221.06C63.5198 254.118 68.4357 280.365 84.0819 289.363C100.242 298.654 127.365 289.105 153.774 266.087C155.915 264.216 158.01 262.292 160.055 260.316C162.698 262.859 165.411 265.327 168.191 267.718C193.774 289.665 219.039 298.527 234.67 289.506C250.815 280.187 256.062 251.99 249.25 217.684C248.713 214.996 248.111 212.322 247.445 209.663C249.35 209.101 251.219 208.522 253.042 207.919C287.548 196.521 310 178.094 310 159.247C310 141.175 288.991 123.698 256.482 112.54ZM248.998 195.751C247.35 196.294 245.665 196.819 243.942 197.328C240.133 185.304 234.992 172.52 228.701 159.309C234.704 146.415 239.647 133.793 243.35 121.848C246.429 122.736 249.417 123.673 252.297 124.661C280.152 134.222 297.142 148.356 297.142 159.247C297.142 170.848 278.792 185.908 248.998 195.751ZM236.636 220.174C239.648 235.343 240.077 249.058 238.082 259.781C236.29 269.415 232.685 275.838 228.227 278.411C218.742 283.886 198.456 276.77 176.578 258C173.992 255.777 171.468 253.482 169.01 251.119C177.492 241.871 185.968 231.12 194.241 219.18C208.792 217.893 222.54 215.787 235.006 212.914C235.622 215.385 236.165 217.805 236.636 220.174ZM111.617 277.465C102.35 280.728 94.9684 280.822 90.5063 278.257C81.0119 272.797 77.0648 251.722 82.4487 223.451C83.0887 220.111 83.8215 216.789 84.6462 213.489C96.9755 216.208 110.623 218.163 125.208 219.343C133.538 231.027 142.258 241.766 151.047 251.169C149.179 252.971 147.267 254.727 145.313 256.435C133.634 266.613 121.931 273.834 111.617 277.465ZM68.2006 195.68C53.5233 190.678 41.4022 184.178 33.0941 177.084C25.6279 170.711 21.8595 164.382 21.8595 159.247C21.8595 148.32 38.1994 134.381 65.4528 124.909C68.7603 123.76 72.2218 122.675 75.8138 121.658C79.581 133.873 84.5216 146.644 90.484 159.559C84.444 172.665 79.4328 185.641 75.6292 198C73.1343 197.287 70.6574 196.513 68.2006 195.68ZM82.7544 96.9058C77.0977 68.0836 80.8543 46.3419 90.3088 40.885C100.378 35.073 122.645 43.3597 146.115 64.1367C147.645 65.4945 149.151 66.8799 150.631 68.2923C141.886 77.6551 133.245 88.3143 124.99 99.929C110.833 101.237 97.2824 103.338 84.8238 106.152C84.056 103.089 83.366 100.004 82.7544 96.9058ZM212.592 128.872C209.65 123.804 206.598 118.8 203.439 113.864C213.043 115.075 222.244 116.682 230.885 118.646C228.291 126.937 225.058 135.603 221.252 144.489C218.47 139.226 215.583 134.019 212.592 128.872ZM159.645 77.4558C165.575 83.8621 171.515 91.014 177.358 98.7743C165.506 98.2162 153.634 98.2139 141.782 98.7673C147.63 91.0785 153.621 83.936 159.645 77.4558ZM106.357 128.959C103.404 134.065 100.571 139.239 97.8597 144.477C94.116 135.623 90.912 126.917 88.2959 118.509C96.8838 116.594 106.042 115.028 115.585 113.839C112.391 118.806 109.314 123.848 106.357 128.959ZM115.859 205.566C106 204.469 96.7039 202.984 88.1183 201.12C90.7756 192.563 94.0501 183.671 97.8749 174.627C100.597 179.869 103.442 185.046 106.408 190.155C109.458 195.407 112.616 200.55 115.859 205.566ZM160 241.941C153.904 235.386 147.826 228.133 141.889 220.333C147.653 220.558 153.528 220.673 159.5 220.673C165.635 220.673 171.7 220.536 177.669 220.271C171.808 228.212 165.89 235.475 160 241.941ZM221.373 174.165C225.397 183.309 228.788 192.154 231.48 200.564C222.753 202.55 213.331 204.149 203.402 205.337C206.584 200.308 209.665 195.218 212.643 190.067C215.671 184.832 218.582 179.53 221.373 174.165ZM201.505 183.662C196.945 191.558 192.129 199.305 187.065 206.89C177.891 207.538 168.697 207.86 159.5 207.855C150.133 207.855 141.021 207.564 132.248 206.997C127.051 199.43 122.143 191.669 117.535 183.732C112.948 175.837 108.665 167.771 104.693 159.552C108.655 151.331 112.926 143.261 117.498 135.36L117.496 135.361C122.065 127.458 126.934 119.731 132.091 112.197C141.043 111.521 150.222 111.17 159.499 111.17C168.818 111.17 178.01 111.525 186.959 112.205C192.065 119.728 196.902 127.429 201.462 135.292C206.048 143.176 210.376 151.206 214.438 159.37C210.417 167.618 206.103 175.72 201.505 183.662ZM228.03 40.5017C238.109 46.2973 242.029 69.6685 235.697 100.317C235.29 102.274 234.84 104.263 234.344 106.284C221.855 103.409 208.295 101.272 194.097 99.9442C185.827 88.2018 177.257 77.5261 168.653 68.2841C170.908 66.1173 173.217 64.0066 175.576 61.9539C197.799 42.6739 218.568 35.0613 228.03 40.5017ZM159.5 132.45C174.344 132.45 186.378 144.448 186.378 159.247C186.378 174.047 174.344 186.045 159.5 186.045C144.656 186.045 132.622 174.047 132.622 159.247C132.622 144.448 144.656 132.45 159.5 132.45Z" fill="#00D8FF" fill-opacity="0.06"/>
</svg>
