<svg width="320" height="320" viewBox="0 0 320 320" fill="none" xmlns="http://www.w3.org/2000/svg">
<path d="M257.572 65.7159C267.476 68.0028 276.475 73.1881 283.42 80.6105C287.239 84.6311 290.565 89.0926 293.327 93.9005C293.455 94.4238 275.49 106.493 264.595 113.225C264.199 113.493 262.63 111.783 260.851 109.156C258.864 105.732 256.039 102.868 252.643 100.835C249.246 98.8009 245.389 97.6632 241.432 97.5283C228.909 96.6679 220.84 103.226 220.898 114.19C220.79 116.884 221.404 119.558 222.677 121.934C225.433 127.631 230.549 131.05 246.618 138.015C276.199 150.747 288.897 159.141 296.734 171.071C301.162 178.609 303.89 187.024 304.725 195.727C305.561 204.429 304.484 213.209 301.571 221.452C297.569 230.495 291.218 238.3 283.177 244.056C275.137 249.812 265.701 253.309 255.851 254.183C245.381 255.372 234.805 255.263 224.363 253.858C208.368 251.23 193.635 243.554 182.317 231.952C178.042 227.135 174.422 221.775 171.549 216.011C172.763 215.123 174.034 214.316 175.352 213.592C177.189 212.546 184.142 208.546 190.7 204.744L202.607 197.767L205.096 201.395C209.293 207.383 214.627 212.487 220.793 216.418C227.026 219.836 234.086 221.456 241.186 221.097C248.286 220.738 255.146 218.413 261.002 214.383C264.022 211.439 265.911 207.526 266.336 203.329C266.761 199.133 265.696 194.921 263.327 191.431C260.118 186.838 253.56 182.977 234.921 174.896C220.305 169.968 206.993 161.8 195.979 151.002C190.738 145.023 186.865 137.971 184.631 130.341C182.978 121.646 182.735 112.742 183.91 103.97C186.095 93.874 191.332 84.6945 198.912 77.6766C206.492 70.6587 216.047 66.142 226.281 64.7392C236.701 63.4941 247.25 63.8234 257.572 65.7159ZM160.561 82.9592L160.689 99.8654H106.853V252.741H68.8879V99.9002H15.0514V83.2964C14.9085 77.6103 15.0637 71.9206 15.5165 66.2508C15.7141 65.9833 48.4463 65.8554 88.1319 65.9252L160.352 66.1229L160.561 82.9592Z" fill="#007ACC" fill-opacity="0.11"/>
</svg>
