<svg width="320" height="320" viewBox="0 0 320 320" fill="none" xmlns="http://www.w3.org/2000/svg">
<path d="M89.75 253C68.25 253 51.5 245.75 39.5 231.25C27.5 216.75 21.5 194.417 21.5 164.25C21.5 133.917 27.5 111.583 39.5 97.25C51.5 82.75 68.25 75.5 89.75 75.5C101.75 75.5 112.5 77.8333 122 82.5C131.5 87.1667 139 94.4167 144.5 104.25C150 114.083 152.75 126.75 152.75 142.25H120C120 128.917 117.167 119.083 111.5 112.75C106 106.25 98.75 103 89.75 103C77.9167 103 69.0833 107.917 63.25 117.75C57.4167 127.417 54.5 140.833 54.5 158V170.5C54.5 187.667 57.5 201.167 63.5 211C69.5 220.667 78.5833 225.5 90.75 225.5C100.083 225.5 107.5 222.333 113 216C118.667 209.5 121.5 199.667 121.5 186.5H152.75C152.75 201.5 150 213.917 144.5 223.75C139 233.583 131.5 240.917 122 245.75C112.667 250.583 101.917 253 89.75 253ZM237.699 253C227.199 253 217.449 251 208.449 247C199.449 243 192.199 237.083 186.699 229.25C181.199 221.25 178.449 211.417 178.449 199.75C178.449 198.75 178.449 197.75 178.449 196.75C178.616 195.75 178.699 194.917 178.699 194.25H211.949C211.949 194.417 211.866 195 211.699 196C211.699 196.833 211.699 197.583 211.699 198.25C211.699 206.417 214.116 213 218.949 218C223.783 223 230.533 225.5 239.199 225.5C248.866 225.5 255.616 223.417 259.449 219.25C263.283 214.917 265.199 210.25 265.199 205.25C265.199 199.417 263.699 194.75 260.699 191.25C257.699 187.75 253.699 184.917 248.699 182.75C243.866 180.417 238.449 178.333 232.449 176.5C226.616 174.667 220.699 172.583 214.699 170.25C208.699 167.917 203.199 164.917 198.199 161.25C193.366 157.417 189.449 152.5 186.449 146.5C183.449 140.5 181.949 132.833 181.949 123.5C181.949 112.667 184.616 103.75 189.949 96.75C195.283 89.5833 202.283 84.25 210.949 80.75C219.783 77.25 229.199 75.5 239.199 75.5C249.366 75.5 258.616 77.25 266.949 80.75C275.449 84.25 282.199 89.75 287.199 97.25C292.366 104.583 294.949 114.167 294.949 126V129H262.199V126.75C262.199 119.417 260.116 113.667 255.949 109.5C251.949 105.167 246.283 103 238.949 103C231.283 103 225.366 104.75 221.199 108.25C217.033 111.583 214.949 115.917 214.949 121.25C214.949 126.25 216.449 130.25 219.449 133.25C222.449 136.25 226.366 138.75 231.199 140.75C236.199 142.75 241.699 144.667 247.699 146.5C253.699 148.167 259.616 150.167 265.449 152.5C271.449 154.833 276.866 157.917 281.699 161.75C286.699 165.417 290.699 170.25 293.699 176.25C296.699 182.083 298.199 189.5 298.199 198.5C298.199 211.667 295.616 222.25 290.449 230.25C285.283 238.083 278.116 243.833 268.949 247.5C259.949 251.167 249.533 253 237.699 253Z" fill="#545454" fill-opacity="0.11"/>
</svg>
