<svg width="320" height="320" viewBox="0 0 320 320" fill="none" xmlns="http://www.w3.org/2000/svg">
<path d="M195.174 201.689C198.977 209.414 204.873 215.906 212.187 220.423C219.5 224.939 227.934 227.295 236.522 227.222C253.889 227.222 264.986 218.51 264.986 206.481C264.986 192.068 253.583 186.956 234.477 178.564L223.993 174.055C193.753 161.128 173.654 144.933 173.654 110.701C173.654 79.1591 197.611 55.1619 235.04 55.1619C247.188 54.2808 259.325 57.0101 269.935 63.0088C280.545 69.0075 289.159 78.0096 294.699 88.8907L262.059 109.914C259.917 104.524 256.194 99.9146 251.382 96.6955C246.57 93.4764 240.897 91.8002 235.114 91.8889C232.593 91.6363 230.047 91.913 227.639 92.7014C225.23 93.4898 223.012 94.7727 221.125 96.4683C219.238 98.1639 217.723 100.235 216.678 102.55C215.632 104.865 215.078 107.373 215.052 109.914C215.052 122.534 222.841 127.633 240.772 135.448L251.256 139.945C286.873 155.267 306.971 170.884 306.971 206.002C306.971 243.859 277.332 264.6 237.514 264.6C222.006 265.582 206.545 262.045 192.994 254.415C179.443 246.785 168.38 235.387 161.137 221.594L195.174 201.689ZM47.1223 205.375C53.7116 217.097 59.7008 227.001 74.0674 227.001C87.8339 227.001 96.5299 221.594 96.5299 200.583V57.6194H138.442V201.173C138.442 244.707 112.991 264.526 75.8556 264.526C62.7375 265.242 49.7109 261.956 38.491 255.099C27.2711 248.243 18.384 238.138 13 226.116L47.1223 205.375Z" fill="#F5DE19" fill-opacity="0.11"/>
</svg>
