<svg width="320" height="320" viewBox="0 0 320 320" fill="none" xmlns="http://www.w3.org/2000/svg">
<path d="M93.3337 220L26.667 180L93.3337 140L160 180V253.333L93.3337 293.333V220Z" stroke="black" stroke-opacity="0.06" stroke-width="7.67" stroke-linecap="round" stroke-linejoin="round"/>
<path d="M26.667 180V253.333L93.3337 293.333M93.3337 220.6L160 180.2M226.667 220L160 180M226.667 220V293.333M226.667 220L293.334 180M160 180L226.667 140M160 180V106.667M226.667 140L293.334 180M226.667 140V66.6665M293.334 180V253.333L226.667 293.333M226.667 293.333L160 253.333M160 106.667L93.3337 66.6665L160 26.6665L226.667 66.6665M160 106.667L226.667 66.6665M93.3337 67.0665V139.8" stroke="black" stroke-opacity="0.06" stroke-width="7.67" stroke-linecap="round" stroke-linejoin="round"/>
</svg>
