<svg width="280" height="280" viewBox="0 0 280 280" fill="none" xmlns="http://www.w3.org/2000/svg">
<path d="M190.866 163.333C191.8 155.633 192.5 147.933 192.5 140C192.5 132.067 191.8 124.367 190.866 116.667H230.3C232.166 124.133 233.333 131.95 233.333 140C233.333 148.05 232.166 155.867 230.3 163.333M170.216 228.2C177.216 215.25 182.583 201.25 186.316 186.667H220.733C209.43 206.13 191.498 220.873 170.216 228.2ZM167.3 163.333H112.7C111.533 155.633 110.833 147.933 110.833 140C110.833 132.067 111.533 124.25 112.7 116.667H167.3C168.35 124.25 169.166 132.067 169.166 140C169.166 147.933 168.35 155.633 167.3 163.333ZM140 232.867C130.316 218.867 122.5 203.35 117.716 186.667H162.283C157.5 203.35 149.683 218.867 140 232.867ZM93.333 93.3335H59.2663C70.4505 73.8156 88.3707 59.048 109.666 51.8002C102.666 64.7502 97.4163 78.7502 93.333 93.3335ZM59.2663 186.667H93.333C97.4163 201.25 102.666 215.25 109.666 228.2C88.4128 220.877 70.5164 206.129 59.2663 186.667ZM49.6997 163.333C47.833 155.867 46.6663 148.05 46.6663 140C46.6663 131.95 47.833 124.133 49.6997 116.667H89.133C88.1997 124.367 87.4997 132.067 87.4997 140C87.4997 147.933 88.1997 155.633 89.133 163.333M140 47.0168C149.683 61.0168 157.5 76.6502 162.283 93.3335H117.716C122.5 76.6502 130.316 61.0168 140 47.0168ZM220.733 93.3335H186.316C182.659 78.8856 177.253 64.9381 170.216 51.8002C191.683 59.1502 209.533 73.9668 220.733 93.3335ZM140 23.3335C75.483 23.3335 23.333 75.8335 23.333 140C23.333 170.942 35.6246 200.617 57.5039 222.496C68.3374 233.329 81.1986 241.923 95.3533 247.786C109.508 253.649 124.679 256.667 140 256.667C170.942 256.667 200.616 244.375 222.495 222.496C244.375 200.617 256.666 170.942 256.666 140C256.666 124.679 253.649 109.508 247.786 95.3538C241.923 81.1991 233.329 68.3379 222.495 57.5044C211.662 46.6709 198.801 38.0773 184.646 32.2142C170.491 26.3512 155.321 23.3335 140 23.3335Z" fill="black" fill-opacity="0.06"/>
</svg>
