<svg width="310" height="310" viewBox="0 0 310 310" fill="none" xmlns="http://www.w3.org/2000/svg">
<g clip-path="url(#clip0_1282_18984)">
<path d="M155 310C240.604 310 310 240.604 310 155C310 69.3959 240.604 0 155 0C69.3959 0 0 69.3959 0 155C0 240.604 69.3959 310 155 310Z" fill="black" fill-opacity="0.03"/>
<path d="M257.486 271.284L119.076 93H93V216.949H113.862V119.493L241.107 283.899C246.842 280.063 252.314 275.849 257.486 271.284Z" fill="url(#paint0_linear_1282_18984)"/>
<path d="M198.056 93H218.722V217H198.056V93Z" fill="url(#paint1_linear_1282_18984)"/>
</g>
<defs>
<linearGradient id="paint0_linear_1282_18984" x1="187.722" y1="200.639" x2="248.861" y2="276.416" gradientUnits="userSpaceOnUse">
<stop stop-color="white"/>
<stop offset="1" stop-color="white" stop-opacity="0"/>
</linearGradient>
<linearGradient id="paint1_linear_1282_18984" x1="208.388" y1="92.9999" x2="208.042" y2="184.062" gradientUnits="userSpaceOnUse">
<stop stop-color="white"/>
<stop offset="1" stop-color="white" stop-opacity="0"/>
</linearGradient>
<clipPath id="clip0_1282_18984">
<rect width="310" height="310" fill="white"/>
</clipPath>
</defs>
</svg>
