<svg width="251" height="250" viewBox="0 0 251 250" fill="none" xmlns="http://www.w3.org/2000/svg">
<rect x="26.5" y="26.5" width="197" height="197" stroke="black" stroke-width="3"/>
<path d="M90.2656 85.7031V91.0547H98.6641V85.7031H103V103.398H85.9688V85.7031H90.2656ZM90.2656 99.9609H98.6641V94.4141H90.2656V99.9609ZM113.586 83.2031V109.18H109.211V83.2031H113.586ZM114.406 114.258V117.773H90.0703V106.523H94.4453V114.258H114.406ZM152.037 85.7812C151.998 95.3125 147.428 102.148 135.983 105.977L134.225 102.578C139.362 100.898 142.799 98.6523 144.889 95.8984L134.811 96.6797L134.186 93.2422L146.647 92.7344C147.057 91.6602 147.311 90.5078 147.467 89.2969H135.983V85.7812H152.037ZM161.686 83.1641V93.6328H166.608V97.2266H161.686V109.297H157.272V83.1641H161.686ZM163.014 114.258V117.773H138.991V106.836H143.405V114.258H163.014ZM104.602 133.586V135.539C104.602 138.312 104.602 142.355 103.508 148.234C104.875 148.137 106.223 148.02 107.531 147.883L107.844 151.086C104.465 151.555 101.008 151.848 97.6094 152.023V164.484H93.2344V152.219C90.168 152.336 87.2188 152.355 84.4844 152.336L83.9375 148.82C88.5664 148.801 93.8789 148.742 99.1719 148.469C99.5234 146.75 99.7773 145.148 99.9531 143.703L86.75 144.875L86.125 141.242L100.266 140.578C100.344 139.27 100.363 138.117 100.383 137.102H86.9453V133.586H104.602ZM114.133 131.164V166.477H109.758V131.164H114.133ZM166.1 158.469V162.062H133.834V158.469H166.1ZM152.194 138.391C152.194 143.586 157.467 148.273 164.811 149.406L163.092 152.844C157.116 151.789 152.233 148.605 149.967 144.172C147.682 148.664 142.838 151.945 136.959 153.039L135.241 149.523C142.389 148.43 147.623 143.586 147.623 138.391V137.844H136.53V134.367H163.327V137.844H152.194V138.391Z" fill="black"/>
<rect width="50" height="50" transform="translate(201 200)" fill="white"/>
<rect width="50" height="50" fill="white"/>
<path d="M37.496 24.008C36.728 24.7333 36.088 25.5227 35.576 26.376C35.064 27.2293 34.6587 28.1253 34.36 29.064C34.4027 29.064 34.424 29.064 34.424 29.064C35.832 29.064 37.0267 29.6187 38.008 30.728C39.032 31.7947 39.544 33.1173 39.544 34.696C39.544 36.4027 38.968 37.8533 37.816 39.048C36.664 40.2427 35.2347 40.84 33.528 40.84C31.736 40.84 30.2427 40.264 29.048 39.112C27.896 37.96 27.32 36.4667 27.32 34.632C27.32 32.84 27.832 30.856 28.856 28.68C29.88 26.4613 31.1173 24.7547 32.568 23.56H37.496V24.008ZM22.84 24.008C22.072 24.7333 21.432 25.5227 20.92 26.376C20.408 27.2293 20.0027 28.1253 19.704 29.064C19.7467 29.064 19.768 29.064 19.768 29.064C21.176 29.064 22.3707 29.6187 23.352 30.728C24.376 31.7947 24.888 33.1173 24.888 34.696C24.888 36.4027 24.312 37.8533 23.16 39.048C22.008 40.2427 20.5787 40.84 18.872 40.84C17.08 40.84 15.5867 40.264 14.392 39.112C13.24 37.96 12.664 36.4667 12.664 34.632C12.664 32.84 13.176 30.856 14.2 28.68C15.224 26.4613 16.4613 24.7547 17.912 23.56H22.84V24.008Z" fill="#F5C02F"/>
<path d="M211.032 227.328C211.8 226.603 212.44 225.813 212.952 224.96C213.464 224.107 213.869 223.211 214.168 222.272C214.125 222.272 214.104 222.272 214.104 222.272C212.696 222.272 211.48 221.739 210.456 220.672C209.475 219.563 208.984 218.219 208.984 216.64C208.984 214.933 209.56 213.483 210.712 212.288C211.864 211.093 213.293 210.496 215 210.496C216.792 210.496 218.264 211.072 219.416 212.224C220.611 213.376 221.208 214.869 221.208 216.704C221.208 218.496 220.696 220.501 219.672 222.72C218.648 224.896 217.411 226.581 215.96 227.776H211.032V227.328ZM225.688 227.328C226.456 226.603 227.096 225.813 227.608 224.96C228.12 224.107 228.525 223.211 228.824 222.272C228.781 222.272 228.76 222.272 228.76 222.272C227.352 222.272 226.136 221.739 225.112 220.672C224.131 219.563 223.64 218.219 223.64 216.64C223.64 214.933 224.216 213.483 225.368 212.288C226.52 211.093 227.949 210.496 229.656 210.496C231.448 210.496 232.92 211.072 234.072 212.224C235.267 213.376 235.864 214.869 235.864 216.704C235.864 218.496 235.352 220.501 234.328 222.72C233.304 224.896 232.067 226.581 230.616 227.776H225.688V227.328Z" fill="#F5C02F"/>
</svg>
