<svg width="33" height="33" viewBox="0 0 33 33" fill="none" xmlns="http://www.w3.org/2000/svg">
<path d="M28.0007 17.472C28.2585 17.2141 28.4033 16.8645 28.4033 16.4999C28.4033 16.1353 28.2585 15.7856 28.0007 15.5277L20.2224 7.74936C20.0955 7.61803 19.9438 7.51328 19.776 7.44122C19.6083 7.36916 19.4279 7.33123 19.2453 7.32964C19.0627 7.32805 18.8817 7.36285 18.7127 7.43198C18.5437 7.50112 18.3902 7.60322 18.2611 7.73232C18.132 7.86142 18.0299 8.01494 17.9607 8.18392C17.8916 8.35291 17.8568 8.53397 17.8584 8.71654C17.86 8.89911 17.8979 9.07954 17.97 9.24729C18.042 9.41505 18.1468 9.56677 18.2781 9.69361L23.7094 15.1249L5.50024 15.1249C5.13557 15.1249 4.78583 15.2697 4.52797 15.5276C4.2701 15.7855 4.12524 16.1352 4.12524 16.4999C4.12524 16.8645 4.2701 17.2143 4.52797 17.4721C4.78583 17.73 5.13557 17.8749 5.50024 17.8749L23.7094 17.8749L18.2781 23.3061C18.0276 23.5654 17.8891 23.9128 17.8922 24.2733C17.8953 24.6338 18.0399 24.9787 18.2949 25.2336C18.5498 25.4885 18.8947 25.6332 19.2552 25.6363C19.6157 25.6394 19.963 25.5008 20.2224 25.2504L28.0007 17.472Z" fill="black" fill-opacity="0.24"/>
</svg>
