<svg width="60" height="60" viewBox="0 0 60 60" fill="none" xmlns="http://www.w3.org/2000/svg">
<path d="M35 37.5C35.7083 37.5 36.3233 37.24 36.845 36.72C37.3667 36.2 37.6267 35.585 37.625 34.875C37.6233 34.165 37.3633 33.5508 36.845 33.0325C36.3267 32.5142 35.7117 32.2533 35 32.25C34.2883 32.2467 33.6742 32.5075 33.1575 33.0325C32.6408 33.5575 32.38 34.1717 32.375 34.875C32.37 35.5783 32.6308 36.1933 33.1575 36.72C33.6842 37.2467 34.2983 37.5067 35 37.5ZM35 29.5C35.4583 29.5 35.8858 29.3333 36.2825 29C36.6792 28.6667 36.9183 28.2292 37 27.6875C37.0833 27.1875 37.26 26.7292 37.53 26.3125C37.8 25.8958 38.29 25.3333 39 24.625C40.25 23.375 41.0833 22.3642 41.5 21.5925C41.9167 20.8208 42.125 19.915 42.125 18.875C42.125 17 41.4683 15.4683 40.155 14.28C38.8417 13.0917 37.1233 12.4983 35 12.5C33.625 12.5 32.375 12.8125 31.25 13.4375C30.125 14.0625 29.2292 14.9583 28.5625 16.125C28.3125 16.5417 28.2917 16.9792 28.5 17.4375C28.7083 17.8958 29.0625 18.2292 29.5625 18.4375C30.0208 18.6458 30.4692 18.6667 30.9075 18.5C31.3458 18.3333 31.71 18.0417 32 17.625C32.375 17.0833 32.8125 16.6775 33.3125 16.4075C33.8125 16.1375 34.375 16.0017 35 16C36 16 36.8125 16.2817 37.4375 16.845C38.0625 17.4083 38.375 18.1683 38.375 19.125C38.375 19.7083 38.2083 20.2608 37.875 20.7825C37.5417 21.3042 36.9583 21.96 36.125 22.75C34.9167 23.7917 34.1458 24.5942 33.8125 25.1575C33.4792 25.7208 33.2708 26.5433 33.1875 27.625C33.1458 28.125 33.3025 28.5625 33.6575 28.9375C34.0125 29.3125 34.46 29.5 35 29.5ZM20 45C18.625 45 17.4483 44.5108 16.47 43.5325C15.4917 42.5542 15.0017 41.3767 15 40V10C15 8.625 15.49 7.44833 16.47 6.47C17.45 5.49167 18.6267 5.00167 20 5H50C51.375 5 52.5525 5.49 53.5325 6.47C54.5125 7.45 55.0017 8.62667 55 10V40C55 41.375 54.5108 42.5525 53.5325 43.5325C52.5542 44.5125 51.3767 45.0017 50 45H20ZM10 55C8.625 55 7.44833 54.5108 6.47 53.5325C5.49167 52.5542 5.00167 51.3767 5 50V17.5C5 16.7917 5.24 16.1983 5.72 15.72C6.2 15.2417 6.79333 15.0017 7.5 15C8.20667 14.9983 8.80083 15.2383 9.2825 15.72C9.76417 16.2017 10.0033 16.795 10 17.5V50H42.5C43.2083 50 43.8025 50.24 44.2825 50.72C44.7625 51.2 45.0017 51.7933 45 52.5C44.9983 53.2067 44.7583 53.8008 44.28 54.2825C43.8017 54.7642 43.2083 55.0033 42.5 55H10Z" fill="white"/>
</svg>
