<svg width="28" height="28" viewBox="0 0 28 28" fill="none" xmlns="http://www.w3.org/2000/svg">
<path d="M15.5907 14L22.6704 6.92103C23.1099 6.48156 23.1099 5.76904 22.6704 5.3296C22.2309 4.89013 21.5184 4.89013 21.079 5.3296L14 12.4093L6.92103 5.3296C6.48156 4.89013 5.76904 4.89013 5.3296 5.3296C4.89017 5.76907 4.89013 6.48159 5.3296 6.92103L12.4093 14L5.3296 21.079C4.89013 21.5184 4.89013 22.231 5.3296 22.6704C5.76907 23.1098 6.48159 23.1099 6.92103 22.6704L14 15.5907L21.0789 22.6704C21.5184 23.1099 22.2309 23.1099 22.6704 22.6704C23.1098 22.2309 23.1098 21.5184 22.6704 21.079L15.5907 14Z" fill="black"/>
</svg>
