<svg width="32" height="33" viewBox="0 0 32 33" fill="none" xmlns="http://www.w3.org/2000/svg">
<g clip-path="url(#clip0_1282_18817)">
<path d="M27.6162 0.422363C27.1546 0.422363 26.7153 0.631594 26.346 1.00082L25.4623 1.84636L30.6537 7.03775L31.5005 6.15405C32.239 5.41559 32.239 4.31529 31.5005 3.57682L28.9233 0.999594C28.554 0.630363 28.0777 0.422363 27.6162 0.422363ZM24.6156 2.57744L23.2691 3.69375L28.8076 9.23221L30.0383 8.00144L24.6156 2.57744ZM22.538 4.57744L11.4242 15.5781C11.368 15.6246 11.3161 15.6761 11.2691 15.7319L11.1928 15.7701C11.0597 15.9246 10.967 16.1099 10.9233 16.3091L9.42296 21.5781C9.35865 21.7866 9.35244 22.0087 9.40498 22.2206C9.45753 22.4324 9.56684 22.6258 9.72116 22.7802C9.87547 22.9345 10.069 23.0438 10.2808 23.0963C10.4926 23.1489 10.7147 23.1427 10.9233 23.0784L16.1922 21.5781C16.367 21.5361 16.5301 21.4557 16.6698 21.3427C16.8095 21.2296 16.9222 21.0867 16.9996 20.9245L27.9239 10.1159L25.8463 7.88452V8.00021L24.3842 6.53805H24.4999L22.538 4.57744ZM1.00081 5.42298C0.715673 5.47721 0.45888 5.63046 0.275786 5.85567C0.0926921 6.08088 -0.00492036 6.36355 0.000191017 6.65375V31.2691C0.000191017 31.5955 0.129861 31.9086 0.360675 32.1394C0.591489 32.3702 0.90454 32.4999 1.23096 32.4999H25.8463C26.1728 32.4999 26.4858 32.3702 26.7166 32.1394C26.9474 31.9086 27.0771 31.5955 27.0771 31.2691V17.7307C27.0771 17.4042 26.9474 17.0912 26.7166 16.8604C26.4858 16.6296 26.1728 16.4999 25.8463 16.4999C25.5199 16.4999 25.2069 16.6296 24.9761 16.8604C24.7452 17.0912 24.6156 17.4042 24.6156 17.7307V30.0384H2.46173V7.88452H14.7694C15.0958 7.88452 15.4089 7.75485 15.6397 7.52403C15.8705 7.29322 16.0002 6.98017 16.0002 6.65375C16.0002 6.32733 15.8705 6.01428 15.6397 5.78346C15.4089 5.55265 15.0958 5.42298 14.7694 5.42298H1.23096C1.19242 5.42116 1.15381 5.42116 1.11527 5.42298C1.07673 5.42116 1.03812 5.42116 0.999575 5.42298H1.00081ZM13.0783 17.5005L14.7707 17.615L14.8863 19.4611L13.194 19.9608L12.5405 19.3085L13.0783 17.5005Z" fill="#080808"/>
</g>
<defs>
<clipPath id="clip0_1282_18817">
<rect width="32" height="32" fill="white" transform="translate(0 0.5)"/>
</clipPath>
</defs>
</svg>
