<svg width="32" height="32" viewBox="0 0 32 32" fill="none" xmlns="http://www.w3.org/2000/svg">
<g clip-path="url(#clip0_1282_19004)">
<rect width="32" height="32" fill="#1EB8A9"/>
<path d="M12.14 29.24C10.42 29.24 9.08 28.66 8.12 27.5C7.16 26.34 6.68 24.5533 6.68 22.14C6.68 19.7133 7.16 17.9267 8.12 16.78C9.08 15.62 10.42 15.04 12.14 15.04C13.1 15.04 13.96 15.2267 14.72 15.6C15.48 15.9733 16.08 16.5533 16.52 17.34C16.96 18.1267 17.18 19.14 17.18 20.38H14.56C14.56 19.3133 14.3333 18.5267 13.88 18.02C13.44 17.5 12.86 17.24 12.14 17.24C11.1933 17.24 10.4867 17.6333 10.02 18.42C9.55333 19.1933 9.32 20.2667 9.32 21.64V22.64C9.32 24.0133 9.56 25.0933 10.04 25.88C10.52 26.6533 11.2467 27.04 12.22 27.04C12.9667 27.04 13.56 26.7867 14 26.28C14.4533 25.76 14.68 24.9733 14.68 23.92H17.18C17.18 25.12 16.96 26.1133 16.52 26.9C16.08 27.6867 15.48 28.2733 14.72 28.66C13.9733 29.0467 13.1133 29.24 12.14 29.24ZM23.9759 29.24C23.1359 29.24 22.3559 29.08 21.6359 28.76C20.9159 28.44 20.3359 27.9667 19.8959 27.34C19.4559 26.7 19.2359 25.9133 19.2359 24.98C19.2359 24.9 19.2359 24.82 19.2359 24.74C19.2493 24.66 19.2559 24.5933 19.2559 24.54H21.9159C21.9159 24.5533 21.9093 24.6 21.8959 24.68C21.8959 24.7467 21.8959 24.8067 21.8959 24.86C21.8959 25.5133 22.0893 26.04 22.4759 26.44C22.8626 26.84 23.4026 27.04 24.0959 27.04C24.8693 27.04 25.4093 26.8733 25.7159 26.54C26.0226 26.1933 26.1759 25.82 26.1759 25.42C26.1759 24.9533 26.0559 24.58 25.8159 24.3C25.5759 24.02 25.2559 23.7933 24.8559 23.62C24.4693 23.4333 24.0359 23.2667 23.5559 23.12C23.0893 22.9733 22.6159 22.8067 22.1359 22.62C21.6559 22.4333 21.2159 22.1933 20.8159 21.9C20.4293 21.5933 20.1159 21.2 19.8759 20.72C19.6359 20.24 19.5159 19.6267 19.5159 18.88C19.5159 18.0133 19.7293 17.3 20.1559 16.74C20.5826 16.1667 21.1426 15.74 21.8359 15.46C22.5426 15.18 23.2959 15.04 24.0959 15.04C24.9093 15.04 25.6493 15.18 26.3159 15.46C26.9959 15.74 27.5359 16.18 27.9359 16.78C28.3493 17.3667 28.5559 18.1333 28.5559 19.08V19.32H25.9359V19.14C25.9359 18.5533 25.7693 18.0933 25.4359 17.76C25.1159 17.4133 24.6626 17.24 24.0759 17.24C23.4626 17.24 22.9893 17.38 22.6559 17.66C22.3226 17.9267 22.1559 18.2733 22.1559 18.7C22.1559 19.1 22.2759 19.42 22.5159 19.66C22.7559 19.9 23.0693 20.1 23.4559 20.26C23.8559 20.42 24.2959 20.5733 24.7759 20.72C25.2559 20.8533 25.7293 21.0133 26.1959 21.2C26.6759 21.3867 27.1093 21.6333 27.4959 21.94C27.8959 22.2333 28.2159 22.62 28.4559 23.1C28.6959 23.5667 28.8159 24.16 28.8159 24.88C28.8159 25.9333 28.6093 26.78 28.1959 27.42C27.7826 28.0467 27.2093 28.5067 26.4759 28.8C25.7559 29.0933 24.9226 29.24 23.9759 29.24Z" fill="#545454"/>
</g>
<defs>
<clipPath id="clip0_1282_19004">
<rect width="32" height="32" fill="white"/>
</clipPath>
</defs>
</svg>
