<svg width="36" height="37" viewBox="0 0 36 37" fill="none" xmlns="http://www.w3.org/2000/svg">
<g clip-path="url(#clip0_1282_18757)">
<path fill-rule="evenodd" clip-rule="evenodd" d="M18 3.5C9.71572 3.5 3 10.2157 3 18.5C3 26.7843 9.71572 33.5 18 33.5C26.2843 33.5 33 26.7843 33 18.5C33 10.2157 26.2843 3.5 18 3.5ZM0 18.5C0 8.5589 8.0589 0.5 18 0.5C27.9411 0.5 36 8.5589 36 18.5C36 28.4411 27.9411 36.5 18 36.5C8.0589 36.5 0 28.4411 0 18.5Z" fill="black"/>
<path fill-rule="evenodd" clip-rule="evenodd" d="M14.388 34.6036C14.2428 34.4163 14.2428 32.7478 14.388 29.5984C12.834 29.6521 11.8523 29.5442 11.4427 29.2749C10.8282 28.8709 10.2132 27.6249 9.66731 26.7468C9.12154 25.8687 7.91021 25.7299 7.42102 25.5336C6.93185 25.3372 6.80905 24.5371 8.76896 25.1422C10.7288 25.7474 10.8244 27.3954 11.4427 27.7807C12.0609 28.1661 13.5391 27.9975 14.2091 27.6888C14.8791 27.3801 14.8298 26.2307 14.9493 25.7754C15.1003 25.3504 14.568 25.2561 14.5563 25.2526C13.9021 25.2526 10.4659 24.5053 9.52211 21.1778C8.57824 17.8504 9.79406 15.6754 10.4427 14.7405C10.8751 14.1172 10.8369 12.7888 10.3279 10.7551C12.1756 10.519 13.6015 11.1006 14.6055 12.4999C14.6065 12.508 15.9219 11.7178 18.0007 11.7178C20.0795 11.7178 20.817 12.3614 21.3861 12.4999C21.9553 12.6385 22.4105 10.0504 25.9256 10.7551C25.1917 12.1975 24.5772 13.9999 25.0462 14.7405C25.5153 15.481 27.3564 17.8359 26.2254 21.1778C25.4715 23.4058 23.9895 24.7641 21.7793 25.2526C21.5259 25.3335 21.3991 25.464 21.3991 25.644C21.3991 25.9141 21.7418 25.9435 22.2354 27.2086C22.5645 28.052 22.5882 30.4609 22.3067 34.4351C21.5934 34.6167 21.0386 34.7386 20.6421 34.8009C19.939 34.9114 19.1757 34.9733 18.4257 34.9972C17.6757 35.0212 17.4152 35.0185 16.3782 34.9219C15.687 34.8576 15.0236 34.7515 14.388 34.6036Z" fill="black"/>
</g>
<defs>
<clipPath id="clip0_1282_18757">
<rect width="36" height="36" fill="white" transform="translate(0 0.5)"/>
</clipPath>
</defs>
</svg>
