<svg width="36" height="37" viewBox="0 0 36 37" fill="none" xmlns="http://www.w3.org/2000/svg">
<g clip-path="url(#clip0_1282_18763)">
<path d="M12.5406 1.6839C8.94363 2.93172 5.84161 5.30012 3.69019 8.44122C1.53876 11.5823 0.451312 15.3306 0.58758 19.1354C0.723849 22.9402 2.07665 26.601 4.44727 29.5802C6.81789 32.5593 10.0814 34.6997 13.7584 35.687C16.7394 36.4562 19.8627 36.49 22.8596 35.7855C25.5746 35.1756 28.0847 33.8712 30.144 31.9998C32.2874 29.9927 33.8431 27.4393 34.644 24.6142C35.5145 21.542 35.6694 18.3112 35.0968 15.1698H18.3568V22.1139H28.0515C27.8578 23.2214 27.4426 24.2785 26.8308 25.2218C26.219 26.1651 25.4231 26.9753 24.4909 27.6039C23.3071 28.387 21.9726 28.9139 20.5731 29.1508C19.1695 29.4118 17.7298 29.4118 16.3262 29.1508C14.9036 28.8567 13.5579 28.2695 12.3746 27.4267C10.4738 26.0812 9.04655 24.1696 8.29652 21.9648C7.53381 19.7188 7.53381 17.2837 8.29652 15.0377C8.83041 13.4633 9.71299 12.0298 10.8784 10.8442C12.2121 9.46257 13.9005 8.47496 15.7585 7.98974C17.6165 7.50453 19.5723 7.54046 21.4112 8.09359C22.8477 8.53457 24.1614 9.30504 25.2475 10.3436C26.3406 9.25609 27.4318 8.16578 28.5212 7.07266C29.0837 6.48484 29.6968 5.92516 30.2509 5.32328C28.5931 3.78056 26.6472 2.58013 24.5246 1.79078C20.6594 0.387313 16.4302 0.349597 12.5406 1.6839Z" fill="white"/>
<path d="M12.5411 1.68429C16.4304 0.34908 20.6596 0.385804 24.5251 1.78836C26.648 2.58307 28.5931 3.78928 30.2485 5.33773C29.686 5.93961 29.0926 6.50211 28.5189 7.08711C27.4276 8.17648 26.3373 9.26211 25.2479 10.344C24.1619 9.30543 22.8482 8.53496 21.4117 8.09398C19.5734 7.53891 17.6177 7.5009 15.7592 7.98413C13.9007 8.46736 12.2112 9.45316 10.8761 10.8334C9.71065 12.0189 8.82806 13.4524 8.29418 15.0268L2.46387 10.5127C4.55077 6.37431 8.1641 3.20874 12.5411 1.68429Z" fill="#E33629"/>
<path d="M0.917101 14.9846C1.23047 13.4315 1.75074 11.9275 2.46398 10.5127L8.29429 15.038C7.53158 17.2841 7.53158 19.7191 8.29429 21.9652C6.35179 23.4652 4.40835 24.9727 2.46398 26.4877C0.678463 22.9336 0.133912 18.8841 0.917101 14.9846Z" fill="#F8BD00"/>
<path d="M18.3567 15.167H35.0967C35.6693 18.3084 35.5144 21.5392 34.6439 24.6114C33.843 27.4365 32.2873 29.9898 30.1439 31.997C28.2623 30.5289 26.3723 29.072 24.4908 27.6039C25.4236 26.9746 26.2198 26.1636 26.8317 25.2192C27.4435 24.2749 27.8584 23.2168 28.0514 22.1082H18.3567C18.3539 19.7964 18.3567 17.4817 18.3567 15.167Z" fill="#587DBD"/>
<path d="M2.46094 26.4873C4.40531 24.9873 6.34875 23.4798 8.29125 21.9648C9.04277 24.1704 10.4721 26.082 12.375 27.4267C13.5619 28.2656 14.9106 28.848 16.335 29.1367C17.7386 29.3977 19.1783 29.3977 20.5819 29.1367C21.9814 28.8998 23.3159 28.3729 24.4997 27.5898C26.3813 29.058 28.2713 30.5148 30.1528 31.983C28.0938 33.8553 25.5837 35.1608 22.8684 35.7714C19.8715 36.476 16.7482 36.4422 13.7672 35.673C11.4095 35.0434 9.20721 33.9337 7.29844 32.4133C5.27811 30.8093 3.628 28.7879 2.46094 26.4873Z" fill="#319F43"/>
</g>
<defs>
<clipPath id="clip0_1282_18763">
<rect width="36" height="36" fill="white" transform="translate(0 0.5)"/>
</clipPath>
</defs>
</svg>
