<svg width="36" height="36" viewBox="0 0 36 36" fill="none" xmlns="http://www.w3.org/2000/svg">
<path d="M18.15 27.825L18 27.975L17.835 27.825C10.71 21.36 6 17.085 6 12.75C6 9.75 8.25 7.5 11.25 7.5C13.56 7.5 15.81 9 16.605 11.04H19.395C20.19 9 22.44 7.5 24.75 7.5C27.75 7.5 30 9.75 30 12.75C30 17.085 25.29 21.36 18.15 27.825ZM24.75 4.5C22.14 4.5 19.635 5.715 18 7.62C16.365 5.715 13.86 4.5 11.25 4.5C6.63 4.5 3 8.115 3 12.75C3 18.405 8.1 23.04 15.825 30.045L18 32.025L20.175 30.045C27.9 23.04 33 18.405 33 12.75C33 8.115 29.37 4.5 24.75 4.5Z" fill="black"/>
</svg>
