<svg width="50" height="50" viewBox="0 0 50 50" fill="none" xmlns="http://www.w3.org/2000/svg">
<path fill-rule="evenodd" clip-rule="evenodd" d="M17.083 6.6665V37.104H37.4997C37.9417 37.104 38.3656 36.9284 38.6782 36.6158C38.9907 36.3033 39.1663 35.8794 39.1663 35.4373V8.33317C39.1663 7.89114 38.9907 7.46722 38.6782 7.15466C38.3656 6.8421 37.9417 6.6665 37.4997 6.6665H17.083ZM14.583 6.6665H10.833V37.104H14.583V6.6665ZM39.1663 39.2561C38.6405 39.4848 38.0731 39.6026 37.4997 39.6019H10.833V43.3332H37.4997C37.9417 43.3332 38.3656 43.1576 38.6782 42.845C38.9907 42.5325 39.1663 42.1085 39.1663 41.6665V39.2561ZM8.33301 4.1665H37.4997C38.6047 4.1665 39.6645 4.60549 40.4459 5.38689C41.2274 6.16829 41.6663 7.2281 41.6663 8.33317V41.6665C41.6663 42.7716 41.2274 43.8314 40.4459 44.6128C39.6645 45.3942 38.6047 45.8332 37.4997 45.8332H8.33301V4.1665Z" fill="#F5C02F"/>
</svg>
