<svg width="50" height="50" viewBox="0 0 50 50" fill="none" xmlns="http://www.w3.org/2000/svg">
<path d="M16.6667 18.7502H33.3333M16.6667 27.0835H29.1667M29.1667 37.5002H27.0833L16.6667 43.7502V37.5002H12.5C10.8424 37.5002 9.25269 36.8417 8.08058 35.6696C6.90848 34.4975 6.25 32.9078 6.25 31.2502V14.5835C6.25 12.9259 6.90848 11.3362 8.08058 10.1641C9.25269 8.99198 10.8424 8.3335 12.5 8.3335H37.5C39.1576 8.3335 40.7473 8.99198 41.9194 10.1641C43.0915 11.3362 43.75 12.9259 43.75 14.5835V23.9585M39.5833 45.8335V45.8543M39.5833 39.5835C40.5173 39.5805 41.4232 39.2643 42.1562 38.6855C42.8892 38.1067 43.4068 37.2987 43.6262 36.3909C43.8455 35.483 43.7541 34.5279 43.3663 33.6782C42.9786 32.8285 42.317 32.1335 41.4875 31.7043C40.6587 31.2798 39.7106 31.1481 38.7975 31.3308C37.8844 31.5135 37.06 31.9998 36.4583 32.7106" stroke="#F5C02F" stroke-width="2.6" stroke-linecap="round" stroke-linejoin="round"/>
</svg>
