<svg width="50" height="50" viewBox="0 0 50 50" fill="none" xmlns="http://www.w3.org/2000/svg">
<path d="M15.6249 7.2915C12.3832 7.38942 10.452 7.74984 9.11445 9.08734C7.2832 10.9207 7.2832 13.8686 7.2832 19.7665V33.3207C7.2832 39.2207 7.2832 42.1686 9.11445 44.0019C10.9436 45.8332 13.8915 45.8332 19.7832 45.8332H30.1999C36.0936 45.8332 39.0395 45.8332 40.8686 43.9998C42.702 42.1686 42.702 39.2207 42.702 33.3207V19.7665C42.702 13.8707 42.702 10.9207 40.8686 9.08734C39.5332 7.74984 37.5999 7.38942 34.3582 7.2915" stroke="#F5C02F" stroke-width="3.125" stroke-linecap="round" stroke-linejoin="round"/>
<path d="M13.542 20.8332H21.8753M28.1253 22.9165C28.1253 22.9165 29.167 22.9165 30.2087 24.9998C30.2087 24.9998 33.517 19.7915 36.4587 18.7498M13.542 33.3332H21.8753M28.1253 35.4165C28.1253 35.4165 29.167 35.4165 30.2087 37.4998C30.2087 37.4998 33.517 32.2915 36.4587 31.2498M15.617 7.81234C15.617 5.79984 17.2503 4.1665 19.2628 4.1665H30.7212C31.6881 4.1665 32.6154 4.55062 33.2992 5.23434C33.9829 5.91807 34.367 6.8454 34.367 7.81234C34.367 8.77927 33.9829 9.7066 33.2992 10.3903C32.6154 11.0741 31.6881 11.4582 30.7212 11.4582H19.2628C18.2959 11.4582 17.3686 11.0741 16.6848 10.3903C16.0011 9.7066 15.617 8.77927 15.617 7.81234Z" stroke="#F5C02F" stroke-width="3.125" stroke-linecap="round" stroke-linejoin="round"/>
</svg>
