<svg width="24" height="24" viewBox="0 0 24 24" fill="none" xmlns="http://www.w3.org/2000/svg">
<path d="M13.119 12L17.769 7.35C17.8425 7.27653 17.9008 7.1893 17.9405 7.0933C17.9803 6.9973 18.0008 6.89441 18.0008 6.7905C18.0008 6.68659 17.9803 6.5837 17.9405 6.4877C17.9008 6.3917 17.8425 6.30447 17.769 6.231C17.6955 6.15753 17.6083 6.09924 17.5123 6.05948C17.4163 6.01971 17.3134 5.99925 17.2095 5.99925C17.1056 5.99925 17.0027 6.01971 16.9067 6.05948C16.8107 6.09924 16.7235 6.15753 16.65 6.231L12 10.881L7.35 6.231C7.27653 6.15753 7.1893 6.09924 7.0933 6.05948C6.9973 6.01971 6.89441 5.99925 6.7905 5.99925C6.68659 5.99925 6.5837 6.01971 6.4877 6.05948C6.3917 6.09924 6.30447 6.15753 6.231 6.231C6.15753 6.30447 6.09924 6.3917 6.05948 6.4877C6.01971 6.5837 5.99925 6.68659 5.99925 6.7905C5.99925 6.89441 6.01971 6.9973 6.05948 7.0933C6.09924 7.1893 6.15753 7.27653 6.231 7.35L10.881 12L6.231 16.65C6.15753 16.7235 6.09924 16.8107 6.05948 16.9067C6.01971 17.0027 5.99925 17.1056 5.99925 17.2095C5.99925 17.3134 6.01971 17.4163 6.05948 17.5123C6.09924 17.6083 6.15753 17.6955 6.231 17.769C6.30447 17.8425 6.3917 17.9008 6.4877 17.9405C6.5837 17.9803 6.68659 18.0008 6.7905 18.0008C6.89441 18.0008 6.9973 17.9803 7.0933 17.9405C7.1893 17.9008 7.27653 17.8425 7.35 17.769L12 13.119L16.65 17.769C16.7235 17.8425 16.8107 17.9008 16.9067 17.9405C17.0027 17.9803 17.1056 18.0008 17.2095 18.0008C17.3134 18.0008 17.4163 17.9803 17.5123 17.9405C17.6083 17.9008 17.6955 17.8425 17.769 17.769C17.8425 17.6955 17.9008 17.6083 17.9405 17.5123C17.9803 17.4163 18.0008 17.3134 18.0008 17.2095C18.0008 17.1056 17.9803 17.0027 17.9405 16.9067C17.9008 16.8107 17.8425 16.7235 17.769 16.65L13.119 12ZM12 24C8.8174 24 5.76516 22.7357 3.51472 20.4853C1.26428 18.2348 0 15.1826 0 12C0 8.8174 1.26428 5.76516 3.51472 3.51472C5.76516 1.26428 8.8174 0 12 0C15.1826 0 18.2348 1.26428 20.4853 3.51472C22.7357 5.76516 24 8.8174 24 12C24 15.1826 22.7357 18.2348 20.4853 20.4853C18.2348 22.7357 15.1826 24 12 24Z" fill="#DA2231"/>
</svg>
