<svg width="32" height="32" viewBox="0 0 32 32" fill="none" xmlns="http://www.w3.org/2000/svg">
<path d="M9.33366 22L2.66699 18L9.33366 14L16.0003 18V25.3333L9.33366 29.3333V22Z" stroke="black" stroke-width="2.66667" stroke-linecap="round" stroke-linejoin="round"/>
<path d="M2.66699 17.9998V25.3332L9.33366 29.3332M9.33366 22.0598L16.0003 18.0198M22.667 21.9998L16.0003 17.9998M22.667 21.9998V29.3332M22.667 21.9998L29.3337 17.9998M16.0003 17.9998L22.667 13.9998M16.0003 17.9998V10.6665M22.667 13.9998L29.3337 17.9998M22.667 13.9998V6.6665M29.3337 17.9998V25.3332L22.667 29.3332M22.667 29.3332L16.0003 25.3332M16.0003 10.6665L9.33366 6.6665L16.0003 2.6665L22.667 6.6665M16.0003 10.6665L22.667 6.6665M9.33366 6.7065V13.9798" stroke="black" stroke-width="2.66667" stroke-linecap="round" stroke-linejoin="round"/>
</svg>
