<svg width="30" height="30" viewBox="0 0 30 30" fill="none" xmlns="http://www.w3.org/2000/svg">
<g clip-path="url(#clip0_1282_18966)">
<path d="M15 0C23.2843 0 30 6.71573 30 15C30 23.2843 23.2843 30 15 30C6.71573 30 0 23.2843 0 15C0 6.71573 6.71573 0 15 0Z" fill="black"/>
<path d="M24.918 3.74672L11.5235 21H9V9.00492H11.0189V18.4362L23.333 2.52586C23.8879 2.89708 24.4174 3.30494 24.918 3.74672Z" fill="url(#paint0_linear_1282_18966)"/>
<path d="M19.167 21H21.1669V9H19.167V21Z" fill="url(#paint1_linear_1282_18966)"/>
</g>
<defs>
<linearGradient id="paint0_linear_1282_18966" x1="18.1666" y1="10.5834" x2="24.0833" y2="3.25004" gradientUnits="userSpaceOnUse">
<stop stop-color="white"/>
<stop offset="1" stop-color="white" stop-opacity="0"/>
</linearGradient>
<linearGradient id="paint1_linear_1282_18966" x1="20.1669" y1="21" x2="20.1334" y2="12.1875" gradientUnits="userSpaceOnUse">
<stop stop-color="white"/>
<stop offset="1" stop-color="white" stop-opacity="0"/>
</linearGradient>
<clipPath id="clip0_1282_18966">
<rect width="30" height="30" fill="white" transform="matrix(1 0 0 -1 0 30)"/>
</clipPath>
</defs>
</svg>
