<svg width="18" height="18" viewBox="0 0 18 18" fill="none" xmlns="http://www.w3.org/2000/svg">
<g clip-path="url(#clip0_1303_3516)">
<path d="M9.69052 8.21317L9.69091 1.20957C9.69091 0.774799 9.33846 0.422352 8.90371 0.422369C8.46894 0.422369 8.11649 0.774817 8.11651 1.20957L8.11686 8.21317L1.11328 8.2128C0.678507 8.2128 0.326059 8.56525 0.326077 9C0.326094 9.43475 0.678524 9.78722 1.11328 9.7872L8.11686 9.78683L8.11651 16.7904C8.11651 17.2252 8.46896 17.5776 8.90371 17.5776C9.33846 17.5776 9.69092 17.2252 9.69091 16.7904L9.69052 9.78683L16.6941 9.78722C17.1289 9.78722 17.4813 9.43477 17.4813 9.00002C17.4813 8.56525 17.1289 8.2128 16.6941 8.21282L9.69052 8.21317Z" fill="#838383"/>
</g>
<defs>
<clipPath id="clip0_1303_3516">
<rect width="18" height="18" fill="white"/>
</clipPath>
</defs>
</svg>
