<svg width="20" height="20" viewBox="0 0 20 20" fill="none" xmlns="http://www.w3.org/2000/svg">
<rect width="20" height="20" rx="6" fill="black"/>
<path d="M9.11728 12.8828V12.679C9.11728 12.1155 9.16368 11.6664 9.25648 11.3317C9.3526 10.9969 9.4918 10.7285 9.67409 10.5263C9.85639 10.3208 10.0785 10.1335 10.3403 9.96449C10.5491 9.83191 10.7347 9.69768 10.8971 9.56179C11.0628 9.42259 11.1937 9.27344 11.2899 9.11435C11.386 8.95526 11.434 8.77462 11.434 8.57244C11.434 8.37689 11.3876 8.20455 11.2948 8.0554C11.202 7.90625 11.0744 7.7919 10.912 7.71236C10.7529 7.6295 10.5756 7.58807 10.3801 7.58807C10.1845 7.58807 10.0006 7.63281 9.82821 7.7223C9.65918 7.81179 9.51998 7.93939 9.4106 8.10511C9.30454 8.26752 9.24985 8.46473 9.24654 8.69673H6.95961C6.96955 8.00071 7.1303 7.43063 7.44185 6.98651C7.75672 6.54238 8.17267 6.21425 8.68972 6.00213C9.20677 5.78669 9.77684 5.67898 10.3999 5.67898C11.0827 5.67898 11.6892 5.78504 12.2195 5.99716C12.7532 6.20928 13.1724 6.52249 13.4774 6.93679C13.7823 7.35109 13.9347 7.85819 13.9347 8.4581C13.9347 8.85251 13.8685 9.20052 13.7359 9.50213C13.6033 9.80374 13.4177 10.0705 13.1791 10.3026C12.9437 10.5312 12.667 10.7401 12.3488 10.929C12.1002 11.0748 11.8931 11.2273 11.7274 11.3864C11.565 11.5455 11.4423 11.7277 11.3595 11.9332C11.2766 12.1354 11.2352 12.384 11.2352 12.679V12.8828H9.11728ZM10.216 16.1442C9.85804 16.1442 9.55146 16.0182 9.29625 15.7663C9.04436 15.5144 8.92007 15.2095 8.92338 14.8516C8.92007 14.5002 9.04436 14.2003 9.29625 13.9517C9.55146 13.6998 9.85804 13.5739 10.216 13.5739C10.5574 13.5739 10.8573 13.6998 11.1159 13.9517C11.3744 14.2003 11.5053 14.5002 11.5086 14.8516C11.5053 15.0902 11.4423 15.3073 11.3197 15.5028C11.2004 15.6984 11.0429 15.8542 10.8474 15.9702C10.6552 16.0862 10.4447 16.1442 10.216 16.1442Z" fill="white"/>
</svg>
