<svg width="30" height="30" viewBox="0 0 30 30" fill="none" xmlns="http://www.w3.org/2000/svg">
<g clip-path="url(#clip0_1282_18974)">
<path d="M22.9688 30H7.03125C3.148 30 0 26.852 0 22.9687V7.03125C0 3.148 3.148 -1.90735e-06 7.03125 -1.90735e-06H22.9688C26.852 -1.90735e-06 30 3.148 30 7.03125V22.9687C30 26.852 26.852 30 22.9688 30Z" fill="#242938"/>
<path d="M14.9997 12.7794C16.2072 12.7794 17.186 13.7582 17.186 14.9656C17.186 16.173 16.2072 17.1519 14.9997 17.1519C13.7922 17.1519 12.8135 16.173 12.8135 14.9656C12.8135 13.7582 13.7923 12.7794 14.9997 12.7794Z" fill="#00D8FF"/>
<path d="M15.0002 19.4106C17.9355 19.4106 20.6624 18.9895 22.7184 18.2815C25.1957 17.4288 26.7188 16.1361 26.7188 14.9655C26.7188 13.7457 25.1046 12.3724 22.4443 11.491C20.4332 10.8247 17.7866 10.4769 15.0002 10.4769C12.1434 10.4769 9.43816 10.8033 7.40426 11.4984C4.83105 12.3779 3.28125 13.7689 3.28125 14.9655C3.28125 16.1266 4.73555 17.4093 7.17797 18.2608C9.24164 18.9803 12.0357 19.4106 14.9998 19.4106H15.0002Z" stroke="#00D8FF" stroke-width="0.556938"/>
<path d="M11.1303 17.1752C12.5968 19.718 14.3238 21.8698 15.9642 23.2971C17.9404 25.0171 19.8213 25.6907 20.8352 25.106C21.8919 24.4966 22.2752 22.4121 21.7097 19.6673C21.2826 17.5923 20.2614 15.126 18.8694 12.7122C17.4421 10.2374 15.8079 8.05699 14.1899 6.64278C12.1426 4.85309 10.1631 4.20539 9.12662 4.80317C8.1208 5.38278 7.73619 7.28368 8.21877 9.82489C8.62646 11.9721 9.64963 14.6075 11.1298 17.1752H11.1303Z" stroke="#00D8FF" stroke-width="0.556938"/>
<path d="M11.1347 12.7055C9.66408 15.2454 8.66283 17.8168 8.24494 19.9507C7.74185 22.522 8.09752 24.4878 9.1106 25.0742C10.1663 25.6854 12.1636 24.9765 14.2591 23.1157C15.8435 21.709 17.4704 19.593 18.8665 17.1815C20.2978 14.7091 21.3705 12.2042 21.7878 10.0962C22.3159 7.42856 21.8885 5.39032 20.8529 4.79091C19.8481 4.20919 18.0094 4.82501 16.0487 6.51227C14.3921 7.93774 12.6198 10.1403 11.1347 12.7055Z" stroke="#00D8FF" stroke-width="0.556938"/>
</g>
<defs>
<clipPath id="clip0_1282_18974">
<rect width="30" height="30" fill="white" transform="matrix(1 0 0 -1 0 30)"/>
</clipPath>
</defs>
</svg>
