<svg width="33" height="33" viewBox="0 0 33 33" fill="none" xmlns="http://www.w3.org/2000/svg">
<path d="M16.5002 10.3127C15.2765 10.3127 14.0802 10.6756 13.0626 11.3555C12.0451 12.0354 11.252 13.0017 10.7837 14.1324C10.3154 15.263 10.1929 16.5071 10.4316 17.7073C10.6704 18.9076 11.2597 20.0101 12.125 20.8754C12.9903 21.7408 14.0929 22.3301 15.2931 22.5688C16.4934 22.8076 17.7375 22.685 18.8681 22.2167C19.9987 21.7484 20.9651 20.9553 21.6449 19.9378C22.3248 18.9203 22.6877 17.724 22.6877 16.5002C22.686 14.8597 22.0336 13.2869 20.8736 12.1269C19.7136 10.9669 18.1407 10.3144 16.5002 10.3127ZM16.5002 20.6252C15.6844 20.6252 14.8869 20.3833 14.2085 19.93C13.5302 19.4768 13.0014 18.8325 12.6892 18.0788C12.377 17.325 12.2953 16.4956 12.4545 15.6955C12.6137 14.8953 13.0065 14.1603 13.5834 13.5834C14.1603 13.0065 14.8953 12.6136 15.6955 12.4545C16.4957 12.2953 17.3251 12.377 18.0788 12.6892C18.8325 13.0014 19.4768 13.5301 19.93 14.2085C20.3833 14.8868 20.6252 15.6844 20.6252 16.5002C20.6252 17.5942 20.1906 18.6434 19.417 19.417C18.6435 20.1906 17.5942 20.6252 16.5002 20.6252ZM30.6722 13.8203C30.6435 13.675 30.5838 13.5377 30.4973 13.4176C30.4108 13.2975 30.2994 13.1974 30.1707 13.1242L26.3255 10.9328L26.31 6.59893C26.3095 6.44967 26.2767 6.3023 26.2137 6.16698C26.1507 6.03167 26.0591 5.91164 25.9452 5.81518C24.5504 4.63527 22.9441 3.73108 21.2118 3.15069C21.0753 3.10451 20.9308 3.08743 20.7873 3.10053C20.6439 3.11362 20.5048 3.15662 20.379 3.22674L16.5002 5.39495L12.6176 3.22288C12.4917 3.15236 12.3524 3.10904 12.2088 3.09571C12.0651 3.08239 11.9202 3.09936 11.7836 3.14553C10.0525 3.7302 8.44809 4.63783 7.05527 5.82034C6.94153 5.91665 6.85002 6.03648 6.78705 6.17156C6.72407 6.30663 6.69112 6.45376 6.69047 6.6028L6.67113 10.9405L2.82586 13.1319C2.69721 13.2051 2.58584 13.3052 2.49931 13.4253C2.41279 13.5454 2.35313 13.6828 2.32441 13.828C1.97259 15.5964 1.97259 17.4169 2.32441 19.1853C2.35313 19.3306 2.41279 19.4679 2.49931 19.588C2.58584 19.7081 2.69721 19.8082 2.82586 19.8814L6.67113 22.0728L6.6866 26.4067C6.68707 26.5559 6.71993 26.7033 6.78291 26.8386C6.84589 26.9739 6.9375 27.094 7.0514 27.1904C8.44624 28.3703 10.0525 29.2745 11.7848 29.8549C11.9213 29.9011 12.0658 29.9182 12.2093 29.9051C12.3527 29.892 12.4918 29.849 12.6176 29.7789L16.5002 27.6055L20.3829 29.7776C20.5365 29.8632 20.7097 29.9076 20.8856 29.9065C20.9982 29.9064 21.1101 29.8881 21.2169 29.8523C22.9477 29.2684 24.5522 28.3617 25.9452 27.1801C26.0589 27.0838 26.1504 26.964 26.2134 26.8289C26.2764 26.6938 26.3093 26.5467 26.31 26.3976L26.3293 22.0599L30.1746 19.8685C30.3033 19.7953 30.4146 19.6952 30.5011 19.5751C30.5877 19.455 30.6473 19.3177 30.6761 19.1724C31.0259 17.4054 31.0246 15.5868 30.6722 13.8203ZM28.7386 18.3204L25.0557 20.4151C24.8944 20.5069 24.7608 20.6405 24.669 20.8018C24.5943 20.9307 24.5156 21.0674 24.4357 21.1963C24.3334 21.3588 24.2789 21.5469 24.2784 21.739L24.2591 25.8962C23.2692 26.6736 22.1663 27.2952 20.9887 27.7396L17.2737 25.6693C17.1194 25.584 16.9459 25.5396 16.7696 25.5404H16.2759C16.0915 25.5359 15.9091 25.5804 15.7474 25.6693L12.0298 27.7447C10.8496 27.3038 9.74377 26.6852 8.75039 25.9104L8.73621 21.7596C8.73557 21.5671 8.6811 21.3787 8.57894 21.2156C8.49902 21.0867 8.42039 20.9578 8.34691 20.8212C8.25575 20.6573 8.12217 20.5211 7.96019 20.4267L4.27347 18.3268C4.08271 17.12 4.08271 15.8907 4.27347 14.6839L7.94988 12.5853C8.11124 12.4936 8.24484 12.36 8.3366 12.1986C8.41136 12.0697 8.49 11.9331 8.56992 11.8042C8.67222 11.6416 8.72672 11.4535 8.72718 11.2615L8.74652 7.10424C9.73644 6.32689 10.8393 5.70527 12.0169 5.26088L15.7268 7.33112C15.8883 7.42062 16.0708 7.46513 16.2553 7.46002H16.7245C16.909 7.46451 17.0914 7.42003 17.253 7.33112L20.9707 5.25573C22.1508 5.69668 23.2567 6.31526 24.2501 7.09006L24.2643 11.2408C24.2649 11.4333 24.3194 11.6217 24.4215 11.7848C24.5014 11.9137 24.5801 12.0426 24.6536 12.1793C24.7447 12.3431 24.8783 12.4794 25.0403 12.5737L28.727 14.6736C28.9203 15.8814 28.9225 17.112 28.7334 18.3204H28.7386Z" fill="black"/>
</svg>
