<svg width="33" height="32" viewBox="0 0 33 32" fill="none" xmlns="http://www.w3.org/2000/svg">
<path d="M23.167 29.3332C22.0559 29.3332 21.1114 28.9443 20.3337 28.1665C19.5559 27.3887 19.167 26.4443 19.167 25.3332C19.167 25.1998 19.2003 24.8887 19.267 24.3998L9.90033 18.9332C9.54477 19.2665 9.13366 19.5278 8.66699 19.7172C8.20033 19.9065 7.70033 20.0007 7.16699 19.9998C6.05588 19.9998 5.11144 19.6109 4.33366 18.8332C3.55588 18.0554 3.16699 17.1109 3.16699 15.9998C3.16699 14.8887 3.55588 13.9443 4.33366 13.1665C5.11144 12.3887 6.05588 11.9998 7.16699 11.9998C7.70033 11.9998 8.20033 12.0945 8.66699 12.2838C9.13366 12.4732 9.54477 12.7341 9.90033 13.0665L19.267 7.59984C19.2225 7.44428 19.195 7.2945 19.1843 7.1505C19.1737 7.0065 19.1679 6.84517 19.167 6.6665C19.167 5.55539 19.5559 4.61095 20.3337 3.83317C21.1114 3.05539 22.0559 2.6665 23.167 2.6665C24.2781 2.6665 25.2225 3.05539 26.0003 3.83317C26.7781 4.61095 27.167 5.55539 27.167 6.6665C27.167 7.77761 26.7781 8.72206 26.0003 9.49984C25.2225 10.2776 24.2781 10.6665 23.167 10.6665C22.6337 10.6665 22.1337 10.5718 21.667 10.3825C21.2003 10.1932 20.7892 9.93228 20.4337 9.59984L11.067 15.0665C11.1114 15.2221 11.1394 15.3723 11.151 15.5172C11.1625 15.6621 11.1679 15.8229 11.167 15.9998C11.1661 16.1767 11.1608 16.3381 11.151 16.4838C11.1412 16.6296 11.1132 16.7794 11.067 16.9332L20.4337 22.3998C20.7892 22.0665 21.2003 21.8056 21.667 21.6172C22.1337 21.4287 22.6337 21.3341 23.167 21.3332C24.2781 21.3332 25.2225 21.7221 26.0003 22.4998C26.7781 23.2776 27.167 24.2221 27.167 25.3332C27.167 26.4443 26.7781 27.3887 26.0003 28.1665C25.2225 28.9443 24.2781 29.3332 23.167 29.3332Z" fill="black"/>
</svg>
