<svg width="30" height="30" viewBox="0 0 30 30" fill="none" xmlns="http://www.w3.org/2000/svg">
<g clip-path="url(#clip0_1282_18963)">
<path d="M5.31348 11.0156H28.6736V28.282H5.31348V11.0156Z" fill="white"/>
<path d="M0.351562 14.979V29.6274H29.6484V0.330566H0.351562V14.979ZM23.9602 13.8071C24.6618 13.97 25.2996 14.337 25.793 14.8618C26.0645 15.1446 26.3007 15.4594 26.4961 15.7993C26.4961 15.8368 25.2305 16.6923 24.4594 17.1704C24.4312 17.1892 24.3188 17.0673 24.1945 16.8821C24.0538 16.6392 23.8538 16.436 23.6132 16.2913C23.3726 16.1466 23.0993 16.0652 22.8188 16.0548C21.9305 15.9938 21.3586 16.4603 21.3633 17.2267C21.3562 17.4175 21.3998 17.6067 21.4898 17.7751C21.6844 18.1806 22.0477 18.422 23.1867 18.9142C25.2844 19.8165 26.182 20.4118 26.7398 21.2579C27.3633 22.1954 27.5016 23.7095 27.0797 24.8298C26.6109 26.0485 25.4625 26.8759 23.8383 27.1501C23.0965 27.2351 22.3469 27.2272 21.607 27.1267C20.473 26.9397 19.4285 26.3953 18.6258 25.5728C18.3563 25.2751 17.8313 24.4993 17.8641 24.4431C17.9495 24.3793 18.0396 24.3221 18.1336 24.272L19.2188 23.672L20.0602 23.1845L20.2359 23.4446C20.5327 23.8689 20.9102 24.2305 21.3469 24.5087C22.2844 25.0009 23.5641 24.9329 24.1969 24.3634C24.4093 24.1547 24.5419 23.8781 24.5714 23.5817C24.601 23.2854 24.5257 22.988 24.3586 22.7415C24.1242 22.4157 23.6555 22.1415 22.3453 21.5696C20.8336 20.9181 20.182 20.5149 19.5867 19.8728C19.2152 19.4489 18.9408 18.9489 18.7828 18.4079C18.665 17.7897 18.6476 17.1566 18.7312 16.5329C19.043 15.0728 20.1375 14.0532 21.7359 13.7509C22.4762 13.6594 23.226 13.68 23.9602 13.8118V13.8071ZM17.0836 15.0353V16.2353H13.2797V27.0704H10.582V16.2329H6.76875V15.061C6.75679 14.6569 6.76618 14.2524 6.79688 13.8493C6.81563 13.8282 9.14062 13.8282 11.9531 13.8282H17.0695L17.0836 15.0353Z" fill="#007ACC"/>
</g>
<defs>
<clipPath id="clip0_1282_18963">
<rect width="30" height="30" fill="white"/>
</clipPath>
</defs>
</svg>
